<mxfile host="app.diagrams.net" modified="2023-04-10T08:39:05.977Z" agent="Mozilla/5.0 (Windows NT 10.0; Win64; x64) AppleWebKit/537.36 (KHTML, like Gecko) Chrome/112.0.0.0 Safari/537.36 Edg/112.0.1722.33" version="21.1.5" etag="PagE4T0fifV7CKd5pGOE" type="github">
  <diagram name="Page-1" id="a34WWTlVmY8gnKJxBDup">
    <mxGraphModel>
      <root>
        <mxCell id="0" />
        <mxCell id="1" parent="0" />
      </root>
    </mxGraphModel>
  </diagram>
</mxfile>
